<?xml version="1.0" standalone="no"?><!DOCTYPE svg PUBLIC "-//W3C//DTD SVG 1.1//EN" "http://www.w3.org/Graphics/SVG/1.1/DTD/svg11.dtd"><svg t="1578128210698" class="icon" viewBox="0 0 1024 1024" version="1.1" xmlns="http://www.w3.org/2000/svg" p-id="15378" width="20" height="20" xmlns:xlink="http://www.w3.org/1999/xlink"><defs><style type="text/css"></style></defs><path d="M785.8 63.1h-98.5c-5.4-0.4-450.2 0-450.2 0-49.4 0-106.7 41.1-106.7 89.5v717.3c0 48.3 57.3 89.5 106.7 89.5l433.9 0.1c112.6 0 221.5-69.2 221.5-179.3V152.6c0-48.4-57.2-89.5-106.7-89.5z m-15.1 656.4c0 6.7-5.6 12.2-12.5 12.2H264.8c-6.9 0-12.5-5.5-12.5-12.2v-50.6c0-6.7 5.6-12.2 12.5-12.2h493.4c6.9 0 12.5 5.5 12.5 12.2v50.6z m0-204c0 6.7-5.6 12.2-12.5 12.2H264.8c-6.9 0-12.5-5.5-12.5-12.2v-50.6c0-6.7 5.6-12.2 12.5-12.2h493.4c6.9 0 12.5 5.5 12.5 12.2v50.6z m0-204c0 6.7-5.6 12.2-12.5 12.2H264.8c-6.9 0-12.5-5.5-12.5-12.2v-50.6c0-6.7 5.6-12.2 12.5-12.2h493.4c6.9 0 12.5 5.5 12.5 12.2v50.6z m0 0" fill="#a4a7ae" p-id="15379"></path></svg>